<?xml version="1.0" standalone="no"?>
<!DOCTYPE svg PUBLIC "-//W3C//DTD SVG 20010904//EN"
 "http://www.w3.org/TR/2001/REC-SVG-20010904/DTD/svg10.dtd">
<svg version="1.0" xmlns="http://www.w3.org/2000/svg"
 width="512.000000pt" height="512.000000pt" viewBox="0 0 512.000000 512.000000"
 preserveAspectRatio="xMidYMid meet">
<metadata>
Created by potrace 1.11, written by Peter Selinger 2001-2013
</metadata>
<g transform="translate(0.000000,512.000000) scale(0.100000,-0.100000)"
fill="#000000" stroke="none">
<path d="M0 2560 l0 -2560 2560 0 2560 0 0 2560 0 2560 -2560 0 -2560 0 0
-2560z m2242 2003 c64 -37 112 -103 129 -179 12 -54 11 -63 -81 -457 -51 -221
-95 -408 -97 -415 -4 -10 115 -12 588 -10 l594 3 106 455 c58 250 109 466 114
479 4 14 28 46 52 72 109 116 277 116 386 1 51 -55 71 -106 70 -177 0 -37
-143 -690 -179 -817 -5 -17 13 -18 283 -18 257 0 292 -2 328 -19 134 -60 189
-225 118 -352 -32 -59 -98 -111 -161 -129 -22 -6 -172 -10 -364 -10 -181 0
-328 -1 -328 -3 0 -5 -190 -822 -196 -839 -4 -15 19 -17 258 -20 304 -4 319
-8 393 -90 50 -55 65 -97 65 -178 0 -68 -25 -123 -76 -172 -75 -72 -81 -73
-441 -76 -292 -3 -322 -5 -327 -20 -2 -9 -50 -215 -106 -456 -56 -242 -110
-456 -120 -476 -84 -164 -320 -187 -439 -43 -35 42 -61 111 -61 161 0 19 41
209 90 422 50 213 90 393 90 399 0 8 -160 11 -590 11 -324 0 -590 -2 -590 -6
0 -10 -191 -829 -207 -887 -30 -110 -139 -197 -249 -197 -105 0 -195 53 -240
142 -45 90 -44 105 59 545 l93 402 -270 3 -271 3 -52 27 c-153 81 -185 285
-62 407 19 18 54 43 79 55 43 20 63 21 372 24 l326 3 27 117 c15 64 60 257 99
427 l72 310 -265 5 c-294 6 -313 9 -379 73 -129 123 -98 332 60 411 l52 26
326 0 326 0 103 448 c57 246 112 468 123 493 59 142 233 199 370 122z"/>
<path d="M2070 2983 c0 -5 -45 -198 -99 -430 l-98 -423 592 0 591 0 97 418
c53 230 97 423 97 430 0 9 -136 12 -590 12 -324 0 -590 -3 -590 -7z"/>
</g>
</svg>
